HIERARCHY
ROOT Hips
{
	OFFSET 0.000000 83.214638 0.000000
	CHANNELS 6 Xposition Yposition Zposition Xrotation Yrotation Zrotation
	JOINT Pelvis
	{
		OFFSET 0.000000 0.000000 0.000000
		CHANNELS 3 Xrotation Yrotation Zrotation
		JOINT LeftUpLeg
		{
			OFFSET 8.479700 -4.795502 -0.379100
			CHANNELS 3 Xrotation Yrotation Zrotation
			JOINT LeftLeg
			{
				OFFSET 0.024144 -32.555107 0.112900
				CHANNELS 3 Xrotation Yrotation Zrotation
				JOINT LeftFoot
				{
					OFFSET -0.024144 -32.638630 -3.012600
					CHANNELS 3 Xrotation Yrotation Zrotation
					JOINT LeftToeBase
					{
						OFFSET 0.970200 -13.225400 11.864200
						CHANNELS 3 Xrotation Yrotation Zrotation
						End Site
						{
							OFFSET 0.000000 12.319262 0.000000
						}
					}
					JOINT LFootTongue
					{
						OFFSET 1.142400 -1.059800 6.665200
						CHANNELS 3 Xrotation Yrotation Zrotation
						End Site
						{
							OFFSET 0.000000 12.319262 0.000000
						}
					}
				}
				JOINT LeftPantLeg
				{
					OFFSET 0.918482 -16.533964 -2.284700
					CHANNELS 3 Xrotation Yrotation Zrotation
					End Site
					{
						OFFSET 0.350399 24.744368 0.000000
					}
				}
			}
		}
		JOINT RightUpLeg
		{
			OFFSET -8.479700 -4.795502 -0.379100
			CHANNELS 3 Xrotation Yrotation Zrotation
			JOINT RightLeg
			{
				OFFSET -0.023144 -32.555092 0.112900
				CHANNELS 3 Xrotation Yrotation Zrotation
				JOINT RightFoot
				{
					OFFSET 0.023144 -32.638641 -3.012700
					CHANNELS 3 Xrotation Yrotation Zrotation
					JOINT RightToeBase
					{
						OFFSET -0.970200 -13.225400 11.864200
						CHANNELS 3 Xrotation Yrotation Zrotation
						End Site
						{
							OFFSET 0.000000 12.319244 0.000000
						}
					}
					JOINT RFootTongue
					{
						OFFSET -1.142200 -1.059800 6.665200
						CHANNELS 3 Xrotation Yrotation Zrotation
						End Site
						{
							OFFSET 0.000000 12.319243 0.000000
						}
					}
				}
				JOINT RightPantLeg
				{
					OFFSET -0.919482 -16.533978 -2.284800
					CHANNELS 3 Xrotation Yrotation Zrotation
					End Site
					{
						OFFSET -0.350400 24.744419 0.000000
					}
				}
			}
		}
	}
	JOINT Spine
	{
		OFFSET 0.000000 7.722000 1.166200
		CHANNELS 3 Xrotation Yrotation Zrotation
		JOINT Spine1
		{
			OFFSET 0.000000 12.024101 0.248800
			CHANNELS 3 Xrotation Yrotation Zrotation
			JOINT Spine2
			{
				OFFSET 0.000000 11.502998 -0.491200
				CHANNELS 3 Xrotation Yrotation Zrotation
				JOINT Neck
				{
					OFFSET 0.000000 18.430702 -3.123100
					CHANNELS 3 Xrotation Yrotation Zrotation
					JOINT Head
					{
						OFFSET 0.000000 9.051102 1.034000
						CHANNELS 3 Xrotation Yrotation Zrotation
						JOINT HairB
						{
							OFFSET 0.208400 24.786102 24.822300
							CHANNELS 3 Xrotation Yrotation Zrotation
							End Site
							{
								OFFSET 0.000000 32.263779 0.000000
							}
						}
						JOINT HairA
						{
							OFFSET -7.081100 24.428299 23.196600
							CHANNELS 3 Xrotation Yrotation Zrotation
							End Site
							{
								OFFSET 0.000000 32.263779 0.000000
							}
						}
						JOINT Hat
						{
							OFFSET 16.728800 15.048294 -15.439601
							CHANNELS 3 Xrotation Yrotation Zrotation
							End Site
							{
								OFFSET 0.000000 32.263779 0.000000
							}
						}
					}
				}
				JOINT LeftShoulder
				{
					OFFSET 6.197800 13.665199 -4.064700
					CHANNELS 3 Xrotation Yrotation Zrotation
					JOINT LeftArm
					{
						OFFSET 7.778100 -0.187103 -1.709300
						CHANNELS 3 Xrotation Yrotation Zrotation
						JOINT LeftForeArm
						{
							OFFSET 22.049376 0.000000 0.000000
							CHANNELS 3 Xrotation Yrotation Zrotation
							JOINT LeftHand
							{
								OFFSET 23.009392 0.000000 0.000000
								CHANNELS 3 Xrotation Yrotation Zrotation
								JOINT LeftHandThumb1
								{
									OFFSET 3.507191 -2.063065 3.133727
									CHANNELS 3 Xrotation Yrotation Zrotation
									JOINT LeftHandThumb2
									{
										OFFSET 3.101337 -1.790558 1.790558
										CHANNELS 3 Xrotation Yrotation Zrotation
										JOINT LeftHandThumb3
										{
											OFFSET 3.058640 -1.765907 1.765906
											CHANNELS 3 Xrotation Yrotation Zrotation
											End Site
											{
												OFFSET -0.415260 3.926476 -0.049563
											}
										}
									}
								}
								JOINT LeftHandIndex1
								{
									OFFSET 11.334419 -0.901459 3.706815
									CHANNELS 3 Xrotation Yrotation Zrotation
									JOINT LeftHandIndex2
									{
										OFFSET 3.283112 0.000000 0.000000
										CHANNELS 3 Xrotation Yrotation Zrotation
										JOINT LeftHandIndex3
										{
											OFFSET 3.323853 0.000000 0.000000
											CHANNELS 3 Xrotation Yrotation Zrotation
											End Site
											{
												OFFSET -1.135597 3.097809 0.402452
											}
										}
									}
								}
								JOINT LeftHandMiddle1
								{
									OFFSET 11.335861 0.000000 0.000000
									CHANNELS 3 Xrotation Yrotation Zrotation
									JOINT LeftHandMiddle2
									{
										OFFSET 3.410492 0.000000 0.000000
										CHANNELS 3 Xrotation Yrotation Zrotation
										JOINT LeftHandMiddle3
										{
											OFFSET 3.312172 0.000000 0.000000
											CHANNELS 3 Xrotation Yrotation Zrotation
											End Site
											{
												OFFSET -1.150200 3.080154 0.400270
											}
										}
									}
								}
								JOINT LeftHandRing1
								{
									OFFSET 11.514786 -0.013176 -3.003090
									CHANNELS 3 Xrotation Yrotation Zrotation
									JOINT LeftHandRing2
									{
										OFFSET 3.053307 0.000000 0.000000
										CHANNELS 3 Xrotation Yrotation Zrotation
										JOINT LeftHandRing3
										{
											OFFSET 3.295807 0.000000 0.000000
											CHANNELS 3 Xrotation Yrotation Zrotation
											End Site
											{
												OFFSET -1.281006 3.013344 0.375733
											}
										}
									}
								}
								JOINT LeftHandPinky1
								{
									OFFSET 10.518692 -0.960396 -5.730441
									CHANNELS 3 Xrotation Yrotation Zrotation
									JOINT LeftHandPinky2
									{
										OFFSET 2.861649 0.000000 0.000000
										CHANNELS 3 Xrotation Yrotation Zrotation
										JOINT LeftHandPinky3
										{
											OFFSET 2.863380 0.000000 0.000000
											CHANNELS 3 Xrotation Yrotation Zrotation
											End Site
											{
												OFFSET -0.843597 2.711159 0.369971
											}
										}
									}
								}
							}
							JOINT LSleeve
							{
								OFFSET 6.676277 -0.344902 -1.011730
								CHANNELS 3 Xrotation Yrotation Zrotation
								End Site
								{
									OFFSET 0.000000 14.885353 0.000000
								}
							}
						}
					}
				}
				JOINT RightShoulder
				{
					OFFSET -6.197800 13.665199 -4.064700
					CHANNELS 3 Xrotation Yrotation Zrotation
					JOINT RightArm
					{
						OFFSET -7.778100 -0.187103 -1.709300
						CHANNELS 3 Xrotation Yrotation Zrotation
						JOINT RightForeArm
						{
							OFFSET -22.049376 0.000000 0.000000
							CHANNELS 3 Xrotation Yrotation Zrotation
							JOINT RightHand
							{
								OFFSET -23.009392 0.000000 0.000000
								CHANNELS 3 Xrotation Yrotation Zrotation
								JOINT RightHandThumb1
								{
									OFFSET -3.507191 -2.063065 3.133727
									CHANNELS 3 Xrotation Yrotation Zrotation
									JOINT RightHandThumb2
									{
										OFFSET -3.101337 -1.790558 1.790558
										CHANNELS 3 Xrotation Yrotation Zrotation
										JOINT RightHandThumb3
										{
											OFFSET -3.058640 -1.765907 1.765906
											CHANNELS 3 Xrotation Yrotation Zrotation
											End Site
											{
												OFFSET 0.415260 3.926476 -0.049563
											}
										}
									}
								}
								JOINT RightHandIndex1
								{
									OFFSET -11.334419 -0.901459 3.706815
									CHANNELS 3 Xrotation Yrotation Zrotation
									JOINT RightHandIndex2
									{
										OFFSET -3.283112 0.000000 0.000000
										CHANNELS 3 Xrotation Yrotation Zrotation
										JOINT RightHandIndex3
										{
											OFFSET -3.323853 0.000000 0.000000
											CHANNELS 3 Xrotation Yrotation Zrotation
											End Site
											{
												OFFSET 1.135597 3.097809 0.402452
											}
										}
									}
								}
								JOINT RightHandMiddle1
								{
									OFFSET -11.335861 0.000000 0.000000
									CHANNELS 3 Xrotation Yrotation Zrotation
									JOINT RightHandMiddle2
									{
										OFFSET -3.410492 0.000000 0.000000
										CHANNELS 3 Xrotation Yrotation Zrotation
										JOINT RightHandMiddle3
										{
											OFFSET -3.312172 0.000000 0.000000
											CHANNELS 3 Xrotation Yrotation Zrotation
											End Site
											{
												OFFSET 1.150200 3.080154 0.400270
											}
										}
									}
								}
								JOINT RightHandRing1
								{
									OFFSET -11.514786 -0.013176 -3.003090
									CHANNELS 3 Xrotation Yrotation Zrotation
									JOINT RightHandRing2
									{
										OFFSET -3.053307 0.000000 0.000000
										CHANNELS 3 Xrotation Yrotation Zrotation
										JOINT RightHandRing3
										{
											OFFSET -3.295807 0.000000 0.000000
											CHANNELS 3 Xrotation Yrotation Zrotation
											End Site
											{
												OFFSET 1.281006 3.013344 0.375733
											}
										}
									}
								}
								JOINT RightHandPinky1
								{
									OFFSET -10.518692 -0.960396 -5.730441
									CHANNELS 3 Xrotation Yrotation Zrotation
									JOINT RightHandPinky2
									{
										OFFSET -2.861649 0.000000 0.000000
										CHANNELS 3 Xrotation Yrotation Zrotation
										JOINT RightHandPinky3
										{
											OFFSET -2.863380 0.000000 0.000000
											CHANNELS 3 Xrotation Yrotation Zrotation
											End Site
											{
												OFFSET 0.843597 2.711159 0.369971
											}
										}
									}
								}
							}
							JOINT RSleeve
							{
								OFFSET -6.676277 -0.344902 -1.011730
								CHANNELS 3 Xrotation Yrotation Zrotation
								End Site
								{
									OFFSET 0.000000 14.885353 0.000000
								}
							}
						}
					}
				}
				JOINT Backpack
				{
					OFFSET 0.000000 -2.471497 36.677502
					CHANNELS 3 Xrotation Yrotation Zrotation
					End Site
					{
						OFFSET 0.000000 20.427315 0.000000
					}
				}
				JOINT Hood
				{
					OFFSET 0.000000 18.754097 -10.431000
					CHANNELS 3 Xrotation Yrotation Zrotation
					JOINT Hood1
					{
						OFFSET 0.000000 -5.011002 -7.685901
						CHANNELS 3 Xrotation Yrotation Zrotation
						End Site
						{
							OFFSET 0.000000 9.175140 0.000000
						}
					}
				}
				JOINT LHoodieString
				{
					OFFSET 5.250500 16.397697 3.089900
					CHANNELS 3 Xrotation Yrotation Zrotation
					JOINT LHoodieString1
					{
						OFFSET 0.257700 -6.364304 3.694600
						CHANNELS 3 Xrotation Yrotation Zrotation
						JOINT LHoodieString2
						{
							OFFSET 0.000000 -9.643799 2.679100
							CHANNELS 3 Xrotation Yrotation Zrotation
							End Site
							{
								OFFSET 0.000000 10.009018 0.000000
							}
						}
					}
				}
				JOINT RHoodieString
				{
					OFFSET -5.250500 16.397697 3.089900
					CHANNELS 3 Xrotation Yrotation Zrotation
					JOINT RHoodieString1
					{
						OFFSET -0.257700 -6.364304 3.694600
						CHANNELS 3 Xrotation Yrotation Zrotation
						JOINT RHoodieString2
						{
							OFFSET 0.000000 -9.643799 2.679100
							CHANNELS 3 Xrotation Yrotation Zrotation
							End Site
							{
								OFFSET 0.000000 10.009018 0.000000
							}
						}
					}
				}
			}
			JOINT LBackpack_Strap
			{
				OFFSET 15.223200 -7.719803 -6.610900
				CHANNELS 3 Xrotation Yrotation Zrotation
				End Site
				{
					OFFSET 0.000000 16.040596 0.000000
				}
			}
			JOINT RBackpack_Strap
			{
				OFFSET -15.223000 -7.719803 -6.610900
				CHANNELS 3 Xrotation Yrotation Zrotation
				End Site
				{
					OFFSET 0.000000 16.040596 0.000000
				}
			}
		}
	}
	JOINT BoyFacialAnim_Joint
	{
		OFFSET 1.000000 -82.208099 -1.550900
		CHANNELS 3 Xrotation Yrotation Zrotation
		End Site
		{
			OFFSET 0.000000 30.012791 0.000000
		}
	}
}
MOTION
Frames: 4
Frame Time: 0.033333
-9.244474 76.715950 127.800217 -6.463028 -35.208905 -6.064417 0.000000 0.000004 0.000000 -67.949365 48.053851 56.041463 41.254623 14.522036 6.868073 -1.731780 2.779786 4.794707 -0.000000 -0.000001 0.000000 -0.000000 -0.000001 0.000000 0.000001 0.000002 -0.000000 6.508312 10.968224 -6.717487 36.611166 18.917276 -12.017166 -17.408521 9.248596 2.000444 0.000001 0.000000 0.000000 0.000001 0.000000 0.000000 0.000003 0.000000 -0.000000 0.898222 -5.415244 -0.139129 1.760548 -10.740031 -0.414784 1.760546 -10.740007 -0.414782 7.668608 15.492935 15.137764 18.160069 20.296734 -29.749224 0.000000 -0.000001 0.000000 0.000000 -0.000001 0.000000 0.000000 -0.000001 0.000000 1.435355 -12.994577 -0.780052 23.876024 34.046205 -16.973408 24.573747 -27.287427 -2.288407 2.623162 -19.507563 12.438580 -10.968964 -9.288303 1.612115 -10.795806 24.076419 3.227284 -0.000000 0.000001 0.000000 1.168145 -0.283245 -1.007196 -0.006185 -4.398083 -22.148692 -0.000003 0.000001 -0.000000 -4.873520 4.168569 -17.523438 -0.023704 -4.860140 -25.779692 0.000001 -0.000002 -0.000000 -4.005908 4.882957 -23.960211 -1.056020 -0.638473 -34.530810 -0.000002 0.000000 -0.000002 1.231409 5.929194 -30.668051 -0.010340 -0.042071 -36.132951 -0.000000 -0.000001 -0.000000 0.000000 0.000002 0.000001 -12.131834 -39.628057 -22.519212 -32.826722 19.910790 0.178578 -182.829247 129.840325 127.433872 -47.834786 -17.679629 -56.391292 24.918355 -21.323352 30.343027 9.041915 8.262074 -18.001819 -0.000001 0.000002 0.000003 -0.070688 -3.035252 61.424164 0.006469 4.395133 66.609180 0.000002 -0.000001 0.000003 -1.235409 -0.119478 68.274291 -0.077306 4.902844 84.501891 -0.000000 0.000003 -0.000001 0.883185 -4.613500 79.192970 -0.717789 1.136478 73.255753 -0.000001 0.000001 0.000002 -3.944549 0.099992 86.764801 -0.029791 0.060131 54.415161 0.000001 -0.000001 -0.000002 0.000002 -0.000001 -0.000002 -0.000000 -0.000002 -0.000000 -0.000000 -0.000002 -0.000000 -0.000000 -0.000002 -0.000000 -0.000000 -0.000002 -0.000000 -0.000000 -0.000002 -0.000000 -0.000000 0.000000 -0.000000 -0.000000 -0.000002 -0.000000 -0.000000 -0.000002 -0.000000 -0.000000 0.000000 -0.000000 -0.000000 -0.000001 -0.000000 -0.000000 -0.000001 -0.000000 0.000000 0.000004 0.000000 
-9.095145 76.273254 129.297684 -7.439614 -29.807174 -8.083239 0.000000 0.000001 -0.000000 -60.741098 45.407258 49.988529 42.549056 13.366049 6.556303 -7.682120 2.292299 1.094147 0.000000 -0.000000 -0.000000 0.000000 -0.000000 -0.000000 -0.000000 0.000000 0.000001 1.908044 5.548744 -3.476865 45.485949 17.688590 -11.788758 -5.168992 11.084245 0.002771 -0.000000 -0.000000 -0.000000 -0.000000 -0.000000 -0.000000 -0.000002 0.000000 -0.000000 0.737931 -5.055813 -0.567094 1.453140 -10.096326 -0.938447 1.453150 -10.096291 -0.938440 7.491294 15.313185 14.021093 17.633119 20.126867 -27.997885 0.000001 0.000002 -0.000000 0.000001 0.000002 -0.000000 0.000001 0.000002 -0.000000 1.365352 -11.996447 -1.736670 25.725211 35.765787 -22.740985 20.877008 -28.341218 -2.260410 2.602114 -20.419332 11.600748 -10.427009 -8.009585 1.969263 -10.795683 24.077076 3.231527 -0.000001 -0.000000 -0.000004 2.239858 0.741894 -3.049219 -0.006860 -4.397646 -23.403326 -0.000003 -0.000001 0.000001 -4.687499 4.403653 -20.493206 -0.024160 -4.861035 -26.630201 0.000001 -0.000000 -0.000003 -4.129623 4.544375 -26.103200 -1.056631 -0.640305 -35.437456 -0.000000 -0.000000 -0.000000 0.985181 5.349612 -32.801082 -0.011345 -0.043351 -37.462532 -0.000000 0.000002 -0.000002 0.000001 0.000000 0.000000 -11.990639 -39.499804 -22.280388 -30.141225 23.103269 -0.766381 -181.894891 130.587821 120.761433 -44.589889 -14.933971 -55.627653 24.918350 -21.323354 30.343030 9.041917 8.262070 -18.001822 0.000002 -0.000001 0.000002 -0.070690 -3.035251 61.424158 0.006469 4.395136 66.609173 -0.000000 0.000001 0.000002 -1.235409 -0.119482 68.274284 -0.077304 4.902843 84.501891 0.000003 0.000001 0.000002 0.883183 -4.613499 79.192970 -0.717794 1.136478 73.255760 -0.000000 -0.000004 0.000005 -3.944549 0.099989 86.764801 -0.029793 0.060132 54.415164 0.000000 0.000002 0.000002 -0.000000 -0.000000 -0.000002 -0.000000 0.000000 -0.000000 -0.000000 0.000000 -0.000000 -0.000000 0.000000 -0.000000 -0.000000 0.000000 -0.000000 -0.000000 0.000000 0.000000 -0.000000 0.000004 0.000001 -0.000000 0.000000 -0.000000 -0.000000 0.000000 0.000000 -0.000000 0.000004 0.000001 -0.000000 -0.000000 0.000000 -0.000000 -0.000000 0.000000 0.000000 0.000001 -0.000000 
-9.014092 75.397156 130.593338 -5.880305 -22.251870 -7.851315 -0.000000 0.000002 0.000000 -57.703836 40.098504 42.764330 46.925800 13.224222 6.648681 -10.161292 2.439575 1.102955 -0.000000 0.000000 -0.000000 -0.000000 0.000000 0.000000 0.000000 -0.000003 0.000000 -7.107817 0.387841 -2.884536 52.538058 18.216255 -11.095683 22.922794 12.293798 6.902098 -0.000002 -0.000000 -0.000000 -0.000002 -0.000000 -0.000000 0.000002 0.000000 -0.000000 0.650376 -4.562732 -1.470948 1.314350 -9.301825 -1.835006 1.314349 -9.301868 -1.835017 6.536345 14.850488 12.608649 16.736137 19.674348 -25.606480 0.000001 0.000000 -0.000000 0.000001 0.000000 -0.000000 0.000001 0.000000 -0.000000 1.195812 -10.525953 -3.213906 26.150884 38.124596 -27.395779 14.603213 -30.735762 -2.326671 2.522868 -21.245534 10.711484 -9.921467 -6.808305 2.300911 -10.795949 24.077431 3.236321 -0.000001 -0.000000 -0.000003 3.307957 1.476880 -5.429721 -0.006636 -4.397225 -24.833535 0.000001 0.000001 -0.000005 -4.488198 4.579412 -23.613841 -0.024701 -4.862179 -27.706299 -0.000001 -0.000001 0.000000 -4.250224 4.265090 -28.469461 -1.057533 -0.642138 -36.436139 0.000001 0.000000 -0.000002 0.702011 4.769110 -35.076454 -0.012434 -0.044688 -38.907674 -0.000001 0.000000 -0.000000 -0.000002 0.000002 -0.000002 -10.928277 -39.622559 -19.605848 -29.184012 24.986065 -3.832664 -181.128270 134.708365 116.066101 -42.112675 -11.523549 -53.039834 24.918354 -21.323354 30.343016 9.041920 8.262073 -18.001816 0.000001 0.000001 -0.000003 -0.070690 -3.035245 61.424164 0.006468 4.395134 66.609180 -0.000000 0.000000 0.000002 -1.235408 -0.119477 68.274291 -0.077306 4.902843 84.501898 0.000002 -0.000001 0.000005 0.883183 -4.613498 79.192977 -0.717791 1.136479 73.255760 0.000002 0.000002 0.000004 -3.944549 0.099994 86.764801 -0.029792 0.060132 54.415161 -0.000001 -0.000001 0.000002 0.000000 -0.000000 -0.000001 -0.000000 0.000001 0.000000 -0.000000 0.000001 0.000000 -0.000000 0.000001 0.000000 -0.000000 0.000001 0.000000 -0.000000 0.000001 0.000000 -0.000000 -0.000001 -0.000000 -0.000000 0.000001 0.000000 -0.000000 0.000001 0.000000 -0.000000 -0.000001 -0.000000 -0.000000 -0.000000 -0.000001 -0.000000 -0.000000 -0.000001 -0.000000 0.000002 0.000000 
-8.865392 74.853813 131.995483 -3.158938 -12.504379 -6.912015 -0.000000 0.000000 0.000000 -55.232475 35.586959 34.120855 49.292550 12.093432 6.550599 -11.752917 1.927157 2.140682 0.000000 -0.000000 -0.000000 0.000000 -0.000000 0.000000 0.000001 -0.000002 0.000001 -17.125145 -5.260983 -3.264889 62.690044 15.790931 -11.091748 30.553980 10.917172 4.614616 0.000001 -0.000000 -0.000000 0.000001 -0.000000 -0.000000 -0.000002 0.000000 -0.000000 0.631079 -3.943539 -2.542189 1.247540 -8.088614 -3.325324 1.247537 -8.088617 -3.325333 5.249309 13.173038 10.583737 14.463636 17.441648 -21.272404 -0.000000 -0.000001 0.000000 -0.000000 -0.000001 0.000000 -0.000000 -0.000001 0.000000 0.935450 -8.845127 -5.604844 23.544398 40.359680 -28.666744 3.568072 -36.110865 -4.862345 2.421685 -21.890097 9.944474 -9.470499 -5.738362 2.596879 -10.796707 24.077265 3.241396 0.000003 0.000001 -0.000000 4.304468 1.843001 -8.144640 -0.005501 -4.396839 -26.443422 0.000002 0.000000 -0.000004 -4.292201 4.680119 -26.835084 -0.026510 -4.863404 -29.034683 0.000004 -0.000001 -0.000000 -4.352610 4.063834 -31.049470 -1.058709 -0.643988 -37.522160 0.000003 0.000001 -0.000002 0.386346 4.202714 -37.467006 -0.013664 -0.046104 -40.457191 -0.000000 -0.000001 -0.000002 0.000000 0.000000 0.000003 -9.209869 -38.932666 -15.833089 -30.525300 24.108237 -4.388876 -180.455661 135.114980 111.081545 -39.639775 -4.955180 -49.263245 24.918350 -21.323357 30.343030 9.041918 8.262075 -18.001822 0.000000 0.000001 -0.000001 -0.070690 -3.035251 61.424158 0.006466 4.395134 66.609180 -0.000001 0.000000 0.000002 -1.235408 -0.119484 68.274284 -0.077299 4.902843 84.501891 -0.000000 0.000002 -0.000003 0.883181 -4.613503 79.192970 -0.717792 1.136479 73.255760 0.000001 -0.000000 0.000005 -3.944549 0.099990 86.764795 -0.029794 0.060135 54.415157 0.000002 -0.000001 0.000000 0.000000 -0.000000 -0.000003 -0.000000 -0.000000 -0.000001 -0.000000 -0.000000 -0.000001 -0.000000 -0.000000 -0.000001 -0.000000 -0.000000 -0.000001 -0.000000 -0.000000 -0.000001 -0.000000 -0.000000 0.000001 -0.000000 -0.000000 -0.000001 -0.000000 -0.000000 -0.000001 -0.000000 -0.000000 0.000001 0.000000 -0.000002 -0.000000 0.000000 -0.000002 -0.000000 -0.000000 0.000000 0.000000 
